# xmcd
#
# Track frame offsets:
# 150
# 15269
# 28528
# 40854
# 52289
# 62543
# 73674
# 82791
# 95158
# 109671
# 123097
# 139041
# 148670
# 159002
# 170909
# 185560
# 200505
# 213303
#
# Disc length: 2983 seconds
#
#
# Revision: 0
# Processed by: cddbd v1.5.1PL2 Copyright (c) Steve Scherf et al.
# Submitted via: FreeRIP 2.943 
#
DISCID=f70ba512
DTITLE=Solid Gold Country CD 1 - Solid Gold Country CD 1
DYEAR=2005
DGENRE=Country
TTITLE0=The Face Of A Fighter - Willie Nelson
TTITLE1=Ruby, Don't Take Your Love To Town - Kenny Rogers
TTITLE2=Cold Cold Heart - Hank Williams
TTITLE3=Walkin' After Midnight - Patsy Cline
TTITLE4=Release Me - Dolly Parton
TTITLE5=Wreck OF The Old '97 - Boxcar Willie
TTITLE6=Rawhide - Frankie Laine
TTITLE7=I Walk The Line - Johnny Cash
TTITLE8=Harper Valley PTA - Jeannie C. Riley
TTITLE9=The Tennessee Waltz - Patti Page
TTITLE10=Blue Yodel - Jimmie Rodgers
TTITLE11=Kiss An Angel Good Morning - Charley Pride
TTITLE12=White Lightnin' - Waylon Jennings
TTITLE13=Walkin' The Floor Over You - Ernest Tubb
TTITLE14=Old Shep - Red Foley
TTITLE15=The Last Round-Up - Gene Autry
TTITLE16=Don't Fence Me In - Roy Rogers
TTITLE17=King Of The Road - Roger Miller
EXTD=
EXTT0=
EXTT1=
EXTT2=
EXTT3=
EXTT4=
EXTT5=
EXTT6=
EXTT7=
EXTT8=
EXTT9=
EXTT10=
EXTT11=
EXTT12=
EXTT13=
EXTT14=
EXTT15=
EXTT16=
EXTT17=
PLAYORDER=
